# xmcd
#
# Track frame offsets:
#	150
#	13269
#	31140
#	49701
#	75086
#	92492
#	104246
#	126073
#	148921
#	167223
#	185291
#	204668
#	221609
#
# Disc length: 3646 seconds
#
# Revision: 0
# Processed by: cddbd v1.5.2PL0 Copyright (c) Steve Scherf et al.
# Submitted via: EasyCDDAExtractor 2010.4.0.0
#
DISCID=b10e3c0d
DTITLE=Cedric Watson et Baijou Creole - Le soleil est levé
DYEAR=1900
DGENRE=Blues
TTITLE0=La danse Kalinda
TTITLE1=Les blues Creole
TTITLE2=T'est petite
TTITLE3=Les hurlements
TTITLE4=A kiss ain't a contract
TTITLE5=Jour par jour
TTITLE6=Allons nous-autres
TTITLE7=Tu vas jamais me comprendre
TTITLE8=Le soleil est levé
TTITLE9=I'll live till I die
TTITLE10=La rose jaune
TTITLE11=Bye bye mon coeur fait mal
TTITLE12=La terre me manque
EXTD=
EXTT0=
EXTT1=
EXTT2=
EXTT3=
EXTT4=
EXTT5=
EXTT6=
EXTT7=
EXTT8=
EXTT9=
EXTT10=
EXTT11=
EXTT12=
PLAYORDER=
